# MagicaVoxel @ Ephtracy

# group
o 

# material
mtllib spoon.mtl
usemtl palette

# normals
vn -1 0 0
vn 1 0 0
vn 0 0 1
vn 0 0 -1
vn 0 -1 0
vn 0 1 0

# texcoords
vt 0.974609 0.5
vt 0.978516 0.5

# verts
v 2.2 3.9 -1.9
v 2.2 3.9 -2.1
v 2.2 4 -1.8
v 2.2 4 -1.9
v 2.2 4 -2.1
v 2.2 4 -2.2
v 2.2 4.5 -1.8
v 2.2 4.5 -1.9
v 2.2 4.5 -2.1
v 2.2 4.5 -2.2
v 2.2 4.6 -1.9
v 2.2 4.6 -2.1
v 2.3 2 -1.9
v 2.3 2 -2.1
v 2.3 3.8 -1.8
v 2.3 3.8 -1.9
v 2.3 3.8 -2.1
v 2.3 3.8 -2.2
v 2.3 3.9 -1.9
v 2.3 3.9 -2.1
v 2.3 4 -1.7
v 2.3 4 -1.8
v 2.3 4 -1.9
v 2.3 4 -2.1
v 2.3 4 -2.2
v 2.3 4 -2.3
v 2.3 4.5 -1.7
v 2.3 4.5 -1.8
v 2.3 4.5 -1.9
v 2.3 4.5 -2.1
v 2.3 4.5 -2.2
v 2.3 4.5 -2.3
v 2.3 4.6 -1.8
v 2.3 4.6 -1.9
v 2.3 4.6 -2.1
v 2.3 4.6 -2.2
v 2.3 3.9 -1.9
v 2.3 3.9 -2.1
v 2.3 4 -1.8
v 2.3 4 -1.9
v 2.3 4 -2.1
v 2.3 4 -2.2
v 2.3 4.4 -1.8
v 2.3 4.4 -1.9
v 2.3 4.4 -2.1
v 2.3 4.4 -2.2
v 2.3 4.5 -1.9
v 2.3 4.5 -2.1
v 2.4 2 -1.9
v 2.4 2 -2.1
v 2.4 3.8 -1.8
v 2.4 3.8 -1.9
v 2.4 3.8 -2.1
v 2.4 3.8 -2.2
v 2.4 3.9 -1.9
v 2.4 3.9 -2.1
v 2.4 4 -1.7
v 2.4 4 -1.8
v 2.4 4 -1.9
v 2.4 4 -2.1
v 2.4 4 -2.2
v 2.4 4 -2.3
v 2.4 4.4 -1.8
v 2.4 4.4 -1.9
v 2.4 4.4 -2.1
v 2.4 4.4 -2.2
v 2.4 4.5 -1.7
v 2.4 4.5 -1.8
v 2.4 4.5 -1.9
v 2.4 4.5 -2.1
v 2.4 4.5 -2.2
v 2.4 4.5 -2.3
v 2.4 4.6 -1.8
v 2.4 4.6 -2.2
v 2.3 4 -1.7
v 2.3 4.5 -1.7
v 2.4 4 -1.7
v 2.4 4.5 -1.7
v 2.2 4 -1.8
v 2.2 4.5 -1.8
v 2.3 3.8 -1.8
v 2.3 4 -1.8
v 2.3 4.5 -1.8
v 2.3 4.6 -1.8
v 2.4 3.8 -1.8
v 2.4 4 -1.8
v 2.4 4.5 -1.8
v 2.4 4.6 -1.8
v 2.2 3.9 -1.9
v 2.2 4 -1.9
v 2.2 4.5 -1.9
v 2.2 4.6 -1.9
v 2.3 2 -1.9
v 2.3 3.8 -1.9
v 2.3 3.9 -1.9
v 2.3 4 -1.9
v 2.3 4.5 -1.9
v 2.3 4.6 -1.9
v 2.4 2 -1.9
v 2.4 3.8 -1.9
v 2.3 3.9 -2.1
v 2.3 4 -2.1
v 2.3 4.4 -2.1
v 2.3 4.5 -2.1
v 2.4 3.9 -2.1
v 2.4 4 -2.1
v 2.4 4.4 -2.1
v 2.4 4.5 -2.1
v 2.3 4 -2.2
v 2.3 4.4 -2.2
v 2.4 4 -2.2
v 2.4 4.4 -2.2
v 2.3 4 -1.8
v 2.3 4.4 -1.8
v 2.4 4 -1.8
v 2.4 4.4 -1.8
v 2.3 3.9 -1.9
v 2.3 4 -1.9
v 2.3 4.4 -1.9
v 2.3 4.5 -1.9
v 2.4 3.9 -1.9
v 2.4 4 -1.9
v 2.4 4.4 -1.9
v 2.4 4.5 -1.9
v 2.2 3.9 -2.1
v 2.2 4 -2.1
v 2.2 4.5 -2.1
v 2.2 4.6 -2.1
v 2.3 2 -2.1
v 2.3 3.8 -2.1
v 2.3 3.9 -2.1
v 2.3 4 -2.1
v 2.3 4.5 -2.1
v 2.3 4.6 -2.1
v 2.4 2 -2.1
v 2.4 3.8 -2.1
v 2.2 4 -2.2
v 2.2 4.5 -2.2
v 2.3 3.8 -2.2
v 2.3 4 -2.2
v 2.3 4.5 -2.2
v 2.3 4.6 -2.2
v 2.4 3.8 -2.2
v 2.4 4 -2.2
v 2.4 4.5 -2.2
v 2.4 4.6 -2.2
v 2.3 4 -2.3
v 2.3 4.5 -2.3
v 2.4 4 -2.3
v 2.4 4.5 -2.3
v 2.3 2 -1.9
v 2.4 2 -1.9
v 2.3 2 -2.1
v 2.4 2 -2.1
v 2.3 3.8 -1.8
v 2.4 3.8 -1.8
v 2.3 3.8 -1.9
v 2.4 3.8 -1.9
v 2.3 3.8 -2.1
v 2.4 3.8 -2.1
v 2.3 3.8 -2.2
v 2.4 3.8 -2.2
v 2.2 3.9 -1.9
v 2.3 3.9 -1.9
v 2.2 3.9 -2.1
v 2.3 3.9 -2.1
v 2.3 4 -1.7
v 2.4 4 -1.7
v 2.2 4 -1.8
v 2.3 4 -1.8
v 2.4 4 -1.8
v 2.2 4 -1.9
v 2.3 4 -1.9
v 2.2 4 -2.1
v 2.3 4 -2.1
v 2.2 4 -2.2
v 2.3 4 -2.2
v 2.4 4 -2.2
v 2.3 4 -2.3
v 2.4 4 -2.3
v 2.3 4.4 -1.8
v 2.4 4.4 -1.8
v 2.3 4.4 -1.9
v 2.4 4.4 -1.9
v 2.3 4.4 -2.1
v 2.4 4.4 -2.1
v 2.3 4.4 -2.2
v 2.4 4.4 -2.2
v 2.3 4.5 -1.9
v 2.4 4.5 -1.9
v 2.3 4.5 -2.1
v 2.4 4.5 -2.1
v 2.3 3.9 -1.9
v 2.4 3.9 -1.9
v 2.3 3.9 -2.1
v 2.4 3.9 -2.1
v 2.3 4 -1.8
v 2.4 4 -1.8
v 2.3 4 -1.9
v 2.4 4 -1.9
v 2.3 4 -2.1
v 2.4 4 -2.1
v 2.3 4 -2.2
v 2.4 4 -2.2
v 2.3 4.5 -1.7
v 2.4 4.5 -1.7
v 2.2 4.5 -1.8
v 2.3 4.5 -1.8
v 2.4 4.5 -1.8
v 2.2 4.5 -1.9
v 2.3 4.5 -1.9
v 2.2 4.5 -2.1
v 2.3 4.5 -2.1
v 2.2 4.5 -2.2
v 2.3 4.5 -2.2
v 2.4 4.5 -2.2
v 2.3 4.5 -2.3
v 2.4 4.5 -2.3
v 2.3 4.6 -1.8
v 2.4 4.6 -1.8
v 2.2 4.6 -1.9
v 2.3 4.6 -1.9
v 2.2 4.6 -2.1
v 2.3 4.6 -2.1
v 2.3 4.6 -2.2
v 2.4 4.6 -2.2

# faces
f 4/2/1 2/2/1 1/2/1
f 5/2/1 2/2/1 4/2/1
f 7/2/1 4/2/1 3/2/1
f 7/2/1 6/2/1 5/2/1
f 7/2/1 5/2/1 4/2/1
f 8/2/1 6/2/1 7/2/1
f 9/2/1 6/2/1 8/2/1
f 10/2/1 6/2/1 9/2/1
f 11/2/1 9/2/1 8/2/1
f 12/2/1 9/2/1 11/2/1
f 16/1/1 14/1/1 13/1/1
f 17/1/1 14/1/1 16/1/1
f 19/1/1 16/1/1 15/1/1
f 19/1/1 18/1/1 17/1/1
f 19/1/1 17/1/1 16/1/1
f 20/1/1 18/1/1 19/1/1
f 22/1/1 19/1/1 15/1/1
f 23/1/1 19/1/1 22/1/1
f 24/1/1 18/1/1 20/1/1
f 25/1/1 18/1/1 24/1/1
f 27/1/1 22/1/1 21/1/1
f 28/1/1 22/1/1 27/1/1
f 31/1/1 26/1/1 25/1/1
f 32/1/1 26/1/1 31/1/1
f 33/1/1 29/1/1 28/1/1
f 34/1/1 29/1/1 33/1/1
f 35/1/1 31/1/1 30/1/1
f 36/1/1 31/1/1 35/1/1
f 37/2/2 38/2/2 40/2/2
f 40/2/2 38/2/2 41/2/2
f 39/2/2 40/2/2 43/2/2
f 41/2/2 42/2/2 43/2/2
f 40/2/2 41/2/2 43/2/2
f 43/2/2 42/2/2 44/2/2
f 44/2/2 42/2/2 45/2/2
f 45/2/2 42/2/2 46/2/2
f 44/2/2 45/2/2 47/2/2
f 47/2/2 45/2/2 48/2/2
f 49/1/2 50/1/2 52/1/2
f 52/1/2 50/1/2 53/1/2
f 51/1/2 52/1/2 55/1/2
f 53/1/2 54/1/2 55/1/2
f 52/1/2 53/1/2 55/1/2
f 55/1/2 54/1/2 56/1/2
f 51/1/2 55/1/2 58/1/2
f 58/1/2 55/1/2 59/1/2
f 56/1/2 54/1/2 60/1/2
f 60/1/2 54/1/2 61/1/2
f 57/1/2 58/1/2 63/1/2
f 61/1/2 62/1/2 66/1/2
f 63/1/2 64/1/2 67/1/2
f 57/1/2 63/1/2 67/1/2
f 67/1/2 64/1/2 68/1/2
f 68/1/2 64/1/2 69/1/2
f 65/1/2 66/1/2 70/1/2
f 66/1/2 62/1/2 71/1/2
f 70/1/2 66/1/2 71/1/2
f 71/1/2 62/1/2 72/1/2
f 68/1/2 69/1/2 73/1/2
f 69/1/2 70/1/2 73/1/2
f 70/1/2 71/1/2 73/1/2
f 73/1/2 71/1/2 74/1/2
f 77/1/3 76/1/3 75/1/3
f 78/1/3 76/1/3 77/1/3
f 82/2/3 80/2/3 79/2/3
f 83/2/3 80/2/3 82/2/3
f 85/1/3 82/1/3 81/1/3
f 86/1/3 82/1/3 85/1/3
f 87/1/3 84/1/3 83/1/3
f 88/1/3 84/1/3 87/1/3
f 95/2/3 90/2/3 89/2/3
f 96/2/3 90/2/3 95/2/3
f 97/2/3 92/2/3 91/2/3
f 98/2/3 92/2/3 97/2/3
f 99/1/3 94/1/3 93/1/3
f 100/1/3 94/1/3 99/1/3
f 105/1/3 102/1/3 101/1/3
f 106/1/3 102/1/3 105/1/3
f 107/1/3 104/1/3 103/1/3
f 108/1/3 104/1/3 107/1/3
f 111/1/3 110/1/3 109/1/3
f 112/1/3 110/1/3 111/1/3
f 113/1/4 114/1/4 115/1/4
f 115/1/4 114/1/4 116/1/4
f 117/1/4 118/1/4 121/1/4
f 121/1/4 118/1/4 122/1/4
f 119/1/4 120/1/4 123/1/4
f 123/1/4 120/1/4 124/1/4
f 125/2/4 126/2/4 131/2/4
f 131/2/4 126/2/4 132/2/4
f 127/2/4 128/2/4 133/2/4
f 133/2/4 128/2/4 134/2/4
f 129/1/4 130/1/4 135/1/4
f 135/1/4 130/1/4 136/1/4
f 137/2/4 138/2/4 140/2/4
f 140/2/4 138/2/4 141/2/4
f 139/1/4 140/1/4 143/1/4
f 143/1/4 140/1/4 144/1/4
f 141/1/4 142/1/4 145/1/4
f 145/1/4 142/1/4 146/1/4
f 147/1/4 148/1/4 149/1/4
f 149/1/4 148/1/4 150/1/4
f 153/1/5 152/1/5 151/1/5
f 154/1/5 152/1/5 153/1/5
f 157/1/5 156/1/5 155/1/5
f 158/1/5 156/1/5 157/1/5
f 161/1/5 160/1/5 159/1/5
f 162/1/5 160/1/5 161/1/5
f 165/2/5 164/2/5 163/2/5
f 166/2/5 164/2/5 165/2/5
f 170/1/5 168/1/5 167/1/5
f 171/1/5 168/1/5 170/1/5
f 172/2/5 170/2/5 169/2/5
f 173/2/5 170/2/5 172/2/5
f 176/2/5 175/2/5 174/2/5
f 177/2/5 175/2/5 176/2/5
f 179/1/5 178/1/5 177/1/5
f 180/1/5 178/1/5 179/1/5
f 183/1/5 182/1/5 181/1/5
f 184/1/5 182/1/5 183/1/5
f 187/1/5 186/1/5 185/1/5
f 188/1/5 186/1/5 187/1/5
f 191/1/5 190/1/5 189/1/5
f 192/1/5 190/1/5 191/1/5
f 193/1/6 194/1/6 195/1/6
f 195/1/6 194/1/6 196/1/6
f 197/1/6 198/1/6 199/1/6
f 199/1/6 198/1/6 200/1/6
f 201/1/6 202/1/6 203/1/6
f 203/1/6 202/1/6 204/1/6
f 205/1/6 206/1/6 208/1/6
f 208/1/6 206/1/6 209/1/6
f 207/2/6 208/2/6 210/2/6
f 210/2/6 208/2/6 211/2/6
f 212/2/6 213/2/6 214/2/6
f 214/2/6 213/2/6 215/2/6
f 215/1/6 216/1/6 217/1/6
f 217/1/6 216/1/6 218/1/6
f 219/1/6 220/1/6 222/1/6
f 221/2/6 222/2/6 223/2/6
f 222/1/6 220/1/6 224/1/6
f 223/2/6 222/2/6 224/2/6
f 224/1/6 220/1/6 225/1/6
f 225/1/6 220/1/6 226/1/6
